<svg width="512" height="512" viewBox="0 0 512 512" fill="none" xmlns="http://www.w3.org/2000/svg">
<path d="M286.484 288.131V224.131H223.085V288.131H286.484Z" fill="#03435F"/>
<path d="M222.859 0.973854V160.974C186.357 160.974 157.539 191.034 157.539 226.913V285.095C157.539 321.943 186.357 351.034 222.859 351.034V511.034C99.9026 511.034 0 410.186 0 286.065V224.974C0 100.852 99.9026 0.00415677 222.859 0.973854Z" fill="#ED342B"/>
<path d="M287.22 0.96946V160.969C324.683 160.969 355.422 192 355.422 229.818V352H288.18V512H512V196.848C512 88.2423 424.585 0 316.998 0H287.22V0.96946Z" fill="#ED342B"/>
</svg>
