<svg width="1440" height="665" viewBox="0 0 1440 665" fill="none" xmlns="http://www.w3.org/2000/svg">
<path d="M0 185.394V665H1440V185.394C1339.06 181.646 1114.96 233.194 892.761 98.576C482.961 -149.698 205.881 144.309 0 185.394Z" fill="#56B8E2" fill-opacity="0.05"/>
<path d="M630.136 280.271C631.869 280.271 633.273 278.867 633.273 277.136C633.273 275.404 631.869 274 630.136 274C628.404 274 627 275.404 627 277.136C627 278.867 628.404 280.271 630.136 280.271Z" fill="#290272" fill-opacity="0.2"/>
<path d="M667.773 279.749C669.216 279.749 670.386 278.579 670.386 277.136C670.386 275.693 669.216 274.523 667.773 274.523C666.329 274.523 665.159 275.693 665.159 277.136C665.159 278.579 666.329 279.749 667.773 279.749Z" stroke="#290272" stroke-opacity="0.4"/>
<path d="M703.318 280.271C705.05 280.271 706.454 278.867 706.454 277.136C706.454 275.404 705.05 274 703.318 274C701.586 274 700.182 275.404 700.182 277.136C700.182 278.867 701.586 280.271 703.318 280.271Z" fill="#290272" fill-opacity="0.2"/>
<path d="M740.954 279.749C742.398 279.749 743.568 278.579 743.568 277.136C743.568 275.693 742.398 274.523 740.954 274.523C739.511 274.523 738.341 275.693 738.341 277.136C738.341 278.579 739.511 279.749 740.954 279.749Z" stroke="#290272" stroke-opacity="0.4"/>
<path d="M776.5 280.271C778.232 280.271 779.636 278.867 779.636 277.136C779.636 275.404 778.232 274 776.5 274C774.768 274 773.364 275.404 773.364 277.136C773.364 278.867 774.768 280.271 776.5 280.271Z" fill="#290272" fill-opacity="0.2"/>
<path d="M814.137 279.749C815.58 279.749 816.75 278.579 816.75 277.136C816.75 275.693 815.58 274.523 814.137 274.523C812.693 274.523 811.523 275.693 811.523 277.136C811.523 278.579 812.693 279.749 814.137 279.749Z" stroke="#290272" stroke-opacity="0.4"/>
<path d="M849.682 280.271C851.414 280.271 852.818 278.867 852.818 277.136C852.818 275.404 851.414 274 849.682 274C847.95 274 846.545 275.404 846.545 277.136C846.545 278.867 847.95 280.271 849.682 280.271Z" fill="#290272" fill-opacity="0.2"/>
<path d="M887.318 279.749C888.761 279.749 889.931 278.579 889.931 277.136C889.931 275.693 888.761 274.523 887.318 274.523C885.874 274.523 884.704 275.693 884.704 277.136C884.704 278.579 885.874 279.749 887.318 279.749Z" stroke="#290272" stroke-opacity="0.4"/>
<path d="M922.864 280.271C924.596 280.271 926 278.867 926 277.136C926 275.404 924.596 274 922.864 274C921.132 274 919.728 275.404 919.728 277.136C919.728 278.867 921.132 280.271 922.864 280.271Z" fill="#290272" fill-opacity="0.2"/>
<path d="M960.5 279.749C961.944 279.749 963.114 278.579 963.114 277.136C963.114 275.693 961.944 274.523 960.5 274.523C959.057 274.523 957.887 275.693 957.887 277.136C957.887 278.579 959.057 279.749 960.5 279.749Z" stroke="#290272" stroke-opacity="0.4"/>
<path d="M996.046 280.271C997.778 280.271 999.182 278.867 999.182 277.136C999.182 275.404 997.778 274 996.046 274C994.313 274 992.909 275.404 992.909 277.136C992.909 278.867 994.313 280.271 996.046 280.271Z" fill="#290272" fill-opacity="0.2"/>
<path d="M1033.68 279.749C1035.13 279.749 1036.3 278.579 1036.3 277.136C1036.3 275.693 1035.13 274.523 1033.68 274.523C1032.24 274.523 1031.07 275.693 1031.07 277.136C1031.07 278.579 1032.24 279.749 1033.68 279.749Z" stroke="#290272" stroke-opacity="0.4"/>
<path d="M1069.23 280.271C1070.96 280.271 1072.36 278.867 1072.36 277.136C1072.36 275.404 1070.96 274 1069.23 274C1067.5 274 1066.09 275.404 1066.09 277.136C1066.09 278.867 1067.5 280.271 1069.23 280.271Z" fill="#290272" fill-opacity="0.2"/>
<path d="M1106.86 279.749C1108.31 279.749 1109.48 278.579 1109.48 277.136C1109.48 275.693 1108.31 274.523 1106.86 274.523C1105.42 274.523 1104.25 275.693 1104.25 277.136C1104.25 278.579 1105.42 279.749 1106.86 279.749Z" stroke="#290272" stroke-opacity="0.4"/>
<path d="M1142.41 280.271C1144.14 280.271 1145.55 278.867 1145.55 277.136C1145.55 275.404 1144.14 274 1142.41 274C1140.68 274 1139.27 275.404 1139.27 277.136C1139.27 278.867 1140.68 280.271 1142.41 280.271Z" fill="#290272" fill-opacity="0.2"/>
<path d="M1180.05 279.749C1181.49 279.749 1182.66 278.579 1182.66 277.136C1182.66 275.693 1181.49 274.523 1180.05 274.523C1178.6 274.523 1177.43 275.693 1177.43 277.136C1177.43 278.579 1178.6 279.749 1180.05 279.749Z" stroke="#290272" stroke-opacity="0.4"/>
<path d="M1215.59 280.271C1217.32 280.271 1218.73 278.867 1218.73 277.136C1218.73 275.404 1217.32 274 1215.59 274C1213.86 274 1212.45 275.404 1212.45 277.136C1212.45 278.867 1213.86 280.271 1215.59 280.271Z" fill="#290272" fill-opacity="0.2"/>
<path d="M1253.23 279.749C1254.67 279.749 1255.84 278.579 1255.84 277.136C1255.84 275.693 1254.67 274.523 1253.23 274.523C1251.78 274.523 1250.61 275.693 1250.61 277.136C1250.61 278.579 1251.78 279.749 1253.23 279.749Z" stroke="#290272" stroke-opacity="0.4"/>
<path d="M1288.77 280.271C1290.5 280.271 1291.91 278.867 1291.91 277.136C1291.91 275.404 1290.5 274 1288.77 274C1287.04 274 1285.64 275.404 1285.64 277.136C1285.64 278.867 1287.04 280.271 1288.77 280.271Z" fill="#290272" fill-opacity="0.2"/>
<path d="M1326.41 279.749C1327.85 279.749 1329.02 278.579 1329.02 277.136C1329.02 275.693 1327.85 274.523 1326.41 274.523C1324.97 274.523 1323.79 275.693 1323.79 277.136C1323.79 278.579 1324.97 279.749 1326.41 279.749Z" stroke="#290272" stroke-opacity="0.4"/>
<path d="M630.136 328.349C631.869 328.349 633.273 326.946 633.273 325.214C633.273 323.482 631.869 322.078 630.136 322.078C628.404 322.078 627 323.482 627 325.214C627 326.946 628.404 328.349 630.136 328.349Z" fill="#290272" fill-opacity="0.2"/>
<path d="M667.773 327.827C669.216 327.827 670.386 326.657 670.386 325.214C670.386 323.771 669.216 322.601 667.773 322.601C666.329 322.601 665.159 323.771 665.159 325.214C665.159 326.657 666.329 327.827 667.773 327.827Z" stroke="#290272" stroke-opacity="0.4"/>
<path d="M703.318 328.349C705.05 328.349 706.454 326.946 706.454 325.214C706.454 323.482 705.05 322.078 703.318 322.078C701.586 322.078 700.182 323.482 700.182 325.214C700.182 326.946 701.586 328.349 703.318 328.349Z" fill="#290272" fill-opacity="0.2"/>
<path d="M740.954 327.827C742.398 327.827 743.568 326.657 743.568 325.214C743.568 323.771 742.398 322.601 740.954 322.601C739.511 322.601 738.341 323.771 738.341 325.214C738.341 326.657 739.511 327.827 740.954 327.827Z" stroke="#290272" stroke-opacity="0.4"/>
<path d="M776.5 328.349C778.232 328.349 779.636 326.946 779.636 325.214C779.636 323.482 778.232 322.078 776.5 322.078C774.768 322.078 773.364 323.482 773.364 325.214C773.364 326.946 774.768 328.349 776.5 328.349Z" fill="#290272" fill-opacity="0.2"/>
<path d="M814.137 327.827C815.58 327.827 816.75 326.657 816.75 325.214C816.75 323.771 815.58 322.601 814.137 322.601C812.693 322.601 811.523 323.771 811.523 325.214C811.523 326.657 812.693 327.827 814.137 327.827Z" stroke="#290272" stroke-opacity="0.4"/>
<path d="M849.682 328.349C851.414 328.349 852.818 326.946 852.818 325.214C852.818 323.482 851.414 322.078 849.682 322.078C847.95 322.078 846.545 323.482 846.545 325.214C846.545 326.946 847.95 328.349 849.682 328.349Z" fill="#290272" fill-opacity="0.2"/>
<path d="M887.318 327.827C888.761 327.827 889.931 326.657 889.931 325.214C889.931 323.771 888.761 322.601 887.318 322.601C885.874 322.601 884.704 323.771 884.704 325.214C884.704 326.657 885.874 327.827 887.318 327.827Z" stroke="#290272" stroke-opacity="0.4"/>
<path d="M922.864 328.349C924.596 328.349 926 326.946 926 325.214C926 323.482 924.596 322.078 922.864 322.078C921.132 322.078 919.728 323.482 919.728 325.214C919.728 326.946 921.132 328.349 922.864 328.349Z" fill="#290272" fill-opacity="0.2"/>
<path d="M960.5 327.827C961.944 327.827 963.114 326.657 963.114 325.214C963.114 323.771 961.944 322.601 960.5 322.601C959.057 322.601 957.887 323.771 957.887 325.214C957.887 326.657 959.057 327.827 960.5 327.827Z" stroke="#290272" stroke-opacity="0.4"/>
<path d="M996.046 328.349C997.778 328.349 999.182 326.946 999.182 325.214C999.182 323.482 997.778 322.078 996.046 322.078C994.313 322.078 992.909 323.482 992.909 325.214C992.909 326.946 994.313 328.349 996.046 328.349Z" fill="#290272" fill-opacity="0.2"/>
<path d="M1033.68 327.827C1035.13 327.827 1036.3 326.657 1036.3 325.214C1036.3 323.771 1035.13 322.601 1033.68 322.601C1032.24 322.601 1031.07 323.771 1031.07 325.214C1031.07 326.657 1032.24 327.827 1033.68 327.827Z" stroke="#290272" stroke-opacity="0.4"/>
<path d="M1069.23 328.349C1070.96 328.349 1072.36 326.946 1072.36 325.214C1072.36 323.482 1070.96 322.078 1069.23 322.078C1067.5 322.078 1066.09 323.482 1066.09 325.214C1066.09 326.946 1067.5 328.349 1069.23 328.349Z" fill="#290272" fill-opacity="0.2"/>
<path d="M1106.86 327.827C1108.31 327.827 1109.48 326.657 1109.48 325.214C1109.48 323.771 1108.31 322.601 1106.86 322.601C1105.42 322.601 1104.25 323.771 1104.25 325.214C1104.25 326.657 1105.42 327.827 1106.86 327.827Z" stroke="#290272" stroke-opacity="0.4"/>
<path d="M1142.41 328.349C1144.14 328.349 1145.55 326.946 1145.55 325.214C1145.55 323.482 1144.14 322.078 1142.41 322.078C1140.68 322.078 1139.27 323.482 1139.27 325.214C1139.27 326.946 1140.68 328.349 1142.41 328.349Z" fill="#290272" fill-opacity="0.2"/>
<path d="M1180.05 327.827C1181.49 327.827 1182.66 326.657 1182.66 325.214C1182.66 323.771 1181.49 322.601 1180.05 322.601C1178.6 322.601 1177.43 323.771 1177.43 325.214C1177.43 326.657 1178.6 327.827 1180.05 327.827Z" stroke="#290272" stroke-opacity="0.4"/>
<path d="M1215.59 328.349C1217.32 328.349 1218.73 326.946 1218.73 325.214C1218.73 323.482 1217.32 322.078 1215.59 322.078C1213.86 322.078 1212.45 323.482 1212.45 325.214C1212.45 326.946 1213.86 328.349 1215.59 328.349Z" fill="#290272" fill-opacity="0.2"/>
<path d="M1253.23 327.827C1254.67 327.827 1255.84 326.657 1255.84 325.214C1255.84 323.771 1254.67 322.601 1253.23 322.601C1251.78 322.601 1250.61 323.771 1250.61 325.214C1250.61 326.657 1251.78 327.827 1253.23 327.827Z" stroke="#290272" stroke-opacity="0.4"/>
<path d="M1288.77 328.349C1290.5 328.349 1291.91 326.946 1291.91 325.214C1291.91 323.482 1290.5 322.078 1288.77 322.078C1287.04 322.078 1285.64 323.482 1285.64 325.214C1285.64 326.946 1287.04 328.349 1288.77 328.349Z" fill="#290272" fill-opacity="0.2"/>
<path d="M1326.41 327.827C1327.85 327.827 1329.02 326.657 1329.02 325.214C1329.02 323.771 1327.85 322.601 1326.41 322.601C1324.97 322.601 1323.79 323.771 1323.79 325.214C1323.79 326.657 1324.97 327.827 1326.41 327.827Z" stroke="#290272" stroke-opacity="0.4"/>
<path d="M630.136 376.428C631.869 376.428 633.273 375.024 633.273 373.292C633.273 371.561 631.869 370.157 630.136 370.157C628.404 370.157 627 371.561 627 373.292C627 375.024 628.404 376.428 630.136 376.428Z" fill="#290272" fill-opacity="0.2"/>
<path d="M667.773 375.905C669.216 375.905 670.386 374.735 670.386 373.292C670.386 371.849 669.216 370.679 667.773 370.679C666.329 370.679 665.159 371.849 665.159 373.292C665.159 374.735 666.329 375.905 667.773 375.905Z" stroke="#290272" stroke-opacity="0.4"/>
<path d="M703.318 376.428C705.05 376.428 706.454 375.024 706.454 373.292C706.454 371.561 705.05 370.157 703.318 370.157C701.586 370.157 700.182 371.561 700.182 373.292C700.182 375.024 701.586 376.428 703.318 376.428Z" fill="#290272" fill-opacity="0.2"/>
<path d="M740.954 375.905C742.398 375.905 743.568 374.735 743.568 373.292C743.568 371.849 742.398 370.679 740.954 370.679C739.511 370.679 738.341 371.849 738.341 373.292C738.341 374.735 739.511 375.905 740.954 375.905Z" stroke="#290272" stroke-opacity="0.4"/>
<path d="M776.5 376.428C778.232 376.428 779.636 375.024 779.636 373.292C779.636 371.561 778.232 370.157 776.5 370.157C774.768 370.157 773.364 371.561 773.364 373.292C773.364 375.024 774.768 376.428 776.5 376.428Z" fill="#290272" fill-opacity="0.2"/>
<path d="M814.137 375.905C815.58 375.905 816.75 374.735 816.75 373.292C816.75 371.849 815.58 370.679 814.137 370.679C812.693 370.679 811.523 371.849 811.523 373.292C811.523 374.735 812.693 375.905 814.137 375.905Z" stroke="#290272" stroke-opacity="0.4"/>
<path d="M849.682 376.428C851.414 376.428 852.818 375.024 852.818 373.292C852.818 371.561 851.414 370.157 849.682 370.157C847.95 370.157 846.545 371.561 846.545 373.292C846.545 375.024 847.95 376.428 849.682 376.428Z" fill="#290272" fill-opacity="0.2"/>
<path d="M887.318 375.905C888.761 375.905 889.931 374.735 889.931 373.292C889.931 371.849 888.761 370.679 887.318 370.679C885.874 370.679 884.704 371.849 884.704 373.292C884.704 374.735 885.874 375.905 887.318 375.905Z" stroke="#290272" stroke-opacity="0.4"/>
<path d="M922.864 376.428C924.596 376.428 926 375.024 926 373.292C926 371.561 924.596 370.157 922.864 370.157C921.132 370.157 919.728 371.561 919.728 373.292C919.728 375.024 921.132 376.428 922.864 376.428Z" fill="#290272" fill-opacity="0.2"/>
<path d="M960.5 375.905C961.944 375.905 963.114 374.735 963.114 373.292C963.114 371.849 961.944 370.679 960.5 370.679C959.057 370.679 957.887 371.849 957.887 373.292C957.887 374.735 959.057 375.905 960.5 375.905Z" stroke="#290272" stroke-opacity="0.4"/>
<path d="M996.046 376.428C997.778 376.428 999.182 375.024 999.182 373.292C999.182 371.561 997.778 370.157 996.046 370.157C994.313 370.157 992.909 371.561 992.909 373.292C992.909 375.024 994.313 376.428 996.046 376.428Z" fill="#290272" fill-opacity="0.2"/>
<path d="M1033.68 375.905C1035.13 375.905 1036.3 374.735 1036.3 373.292C1036.3 371.849 1035.13 370.679 1033.68 370.679C1032.24 370.679 1031.07 371.849 1031.07 373.292C1031.07 374.735 1032.24 375.905 1033.68 375.905Z" stroke="#290272" stroke-opacity="0.4"/>
<path d="M1069.23 376.428C1070.96 376.428 1072.36 375.024 1072.36 373.292C1072.36 371.561 1070.96 370.157 1069.23 370.157C1067.5 370.157 1066.09 371.561 1066.09 373.292C1066.09 375.024 1067.5 376.428 1069.23 376.428Z" fill="#290272" fill-opacity="0.2"/>
<path d="M1106.86 375.905C1108.31 375.905 1109.48 374.735 1109.48 373.292C1109.48 371.849 1108.31 370.679 1106.86 370.679C1105.42 370.679 1104.25 371.849 1104.25 373.292C1104.25 374.735 1105.42 375.905 1106.86 375.905Z" stroke="#290272" stroke-opacity="0.4"/>
<path d="M1142.41 376.428C1144.14 376.428 1145.55 375.024 1145.55 373.292C1145.55 371.561 1144.14 370.157 1142.41 370.157C1140.68 370.157 1139.27 371.561 1139.27 373.292C1139.27 375.024 1140.68 376.428 1142.41 376.428Z" fill="#290272" fill-opacity="0.2"/>
<path d="M1180.05 375.905C1181.49 375.905 1182.66 374.735 1182.66 373.292C1182.66 371.849 1181.49 370.679 1180.05 370.679C1178.6 370.679 1177.43 371.849 1177.43 373.292C1177.43 374.735 1178.6 375.905 1180.05 375.905Z" stroke="#290272" stroke-opacity="0.4"/>
<path d="M1215.59 376.428C1217.32 376.428 1218.73 375.024 1218.73 373.292C1218.73 371.561 1217.32 370.157 1215.59 370.157C1213.86 370.157 1212.45 371.561 1212.45 373.292C1212.45 375.024 1213.86 376.428 1215.59 376.428Z" fill="#290272" fill-opacity="0.2"/>
<path d="M1253.23 375.905C1254.67 375.905 1255.84 374.735 1255.84 373.292C1255.84 371.849 1254.67 370.679 1253.23 370.679C1251.78 370.679 1250.61 371.849 1250.61 373.292C1250.61 374.735 1251.78 375.905 1253.23 375.905Z" stroke="#290272" stroke-opacity="0.4"/>
<path d="M1288.77 376.428C1290.5 376.428 1291.91 375.024 1291.91 373.292C1291.91 371.561 1290.5 370.157 1288.77 370.157C1287.04 370.157 1285.64 371.561 1285.64 373.292C1285.64 375.024 1287.04 376.428 1288.77 376.428Z" fill="#290272" fill-opacity="0.2"/>
<path d="M1326.41 375.905C1327.85 375.905 1329.02 374.735 1329.02 373.292C1329.02 371.849 1327.85 370.679 1326.41 370.679C1324.97 370.679 1323.79 371.849 1323.79 373.292C1323.79 374.735 1324.97 375.905 1326.41 375.905Z" stroke="#290272" stroke-opacity="0.4"/>
<path d="M630.136 424.506C631.869 424.506 633.273 423.102 633.273 421.37C633.273 419.639 631.869 418.235 630.136 418.235C628.404 418.235 627 419.639 627 421.37C627 423.102 628.404 424.506 630.136 424.506Z" fill="#290272" fill-opacity="0.2"/>
<path d="M667.773 423.983C669.216 423.983 670.386 422.814 670.386 421.371C670.386 419.927 669.216 418.758 667.773 418.758C666.329 418.758 665.159 419.927 665.159 421.371C665.159 422.814 666.329 423.983 667.773 423.983Z" stroke="#290272" stroke-opacity="0.4"/>
<path d="M703.318 424.506C705.05 424.506 706.454 423.102 706.454 421.37C706.454 419.639 705.05 418.235 703.318 418.235C701.586 418.235 700.182 419.639 700.182 421.37C700.182 423.102 701.586 424.506 703.318 424.506Z" fill="#290272" fill-opacity="0.2"/>
<path d="M740.954 423.983C742.398 423.983 743.568 422.814 743.568 421.371C743.568 419.927 742.398 418.758 740.954 418.758C739.511 418.758 738.341 419.927 738.341 421.371C738.341 422.814 739.511 423.983 740.954 423.983Z" stroke="#290272" stroke-opacity="0.4"/>
<path d="M776.5 424.506C778.232 424.506 779.636 423.102 779.636 421.37C779.636 419.639 778.232 418.235 776.5 418.235C774.768 418.235 773.364 419.639 773.364 421.37C773.364 423.102 774.768 424.506 776.5 424.506Z" fill="#290272" fill-opacity="0.2"/>
<path d="M814.137 423.983C815.58 423.983 816.75 422.814 816.75 421.371C816.75 419.927 815.58 418.758 814.137 418.758C812.693 418.758 811.523 419.927 811.523 421.371C811.523 422.814 812.693 423.983 814.137 423.983Z" stroke="#290272" stroke-opacity="0.4"/>
<path d="M849.682 424.506C851.414 424.506 852.818 423.102 852.818 421.37C852.818 419.639 851.414 418.235 849.682 418.235C847.95 418.235 846.545 419.639 846.545 421.37C846.545 423.102 847.95 424.506 849.682 424.506Z" fill="#290272" fill-opacity="0.2"/>
<path d="M887.318 423.983C888.761 423.983 889.931 422.814 889.931 421.371C889.931 419.927 888.761 418.758 887.318 418.758C885.874 418.758 884.704 419.927 884.704 421.371C884.704 422.814 885.874 423.983 887.318 423.983Z" stroke="#290272" stroke-opacity="0.4"/>
<path d="M922.864 424.506C924.596 424.506 926 423.102 926 421.37C926 419.639 924.596 418.235 922.864 418.235C921.132 418.235 919.728 419.639 919.728 421.37C919.728 423.102 921.132 424.506 922.864 424.506Z" fill="#290272" fill-opacity="0.2"/>
<path d="M960.5 423.983C961.944 423.983 963.114 422.814 963.114 421.371C963.114 419.927 961.944 418.758 960.5 418.758C959.057 418.758 957.887 419.927 957.887 421.371C957.887 422.814 959.057 423.983 960.5 423.983Z" stroke="#290272" stroke-opacity="0.4"/>
<path d="M996.046 424.506C997.778 424.506 999.182 423.102 999.182 421.37C999.182 419.639 997.778 418.235 996.046 418.235C994.313 418.235 992.909 419.639 992.909 421.37C992.909 423.102 994.313 424.506 996.046 424.506Z" fill="#290272" fill-opacity="0.2"/>
<path d="M1033.68 423.983C1035.13 423.983 1036.3 422.814 1036.3 421.371C1036.3 419.927 1035.13 418.758 1033.68 418.758C1032.24 418.758 1031.07 419.927 1031.07 421.371C1031.07 422.814 1032.24 423.983 1033.68 423.983Z" stroke="#290272" stroke-opacity="0.4"/>
<path d="M1069.23 424.506C1070.96 424.506 1072.36 423.102 1072.36 421.37C1072.36 419.639 1070.96 418.235 1069.23 418.235C1067.5 418.235 1066.09 419.639 1066.09 421.37C1066.09 423.102 1067.5 424.506 1069.23 424.506Z" fill="#290272" fill-opacity="0.2"/>
<path d="M1106.86 423.983C1108.31 423.983 1109.48 422.814 1109.48 421.371C1109.48 419.927 1108.31 418.758 1106.86 418.758C1105.42 418.758 1104.25 419.927 1104.25 421.371C1104.25 422.814 1105.42 423.983 1106.86 423.983Z" stroke="#290272" stroke-opacity="0.4"/>
<path d="M1142.41 424.506C1144.14 424.506 1145.55 423.102 1145.55 421.37C1145.55 419.639 1144.14 418.235 1142.41 418.235C1140.68 418.235 1139.27 419.639 1139.27 421.37C1139.27 423.102 1140.68 424.506 1142.41 424.506Z" fill="#290272" fill-opacity="0.2"/>
<path d="M1180.05 423.983C1181.49 423.983 1182.66 422.814 1182.66 421.371C1182.66 419.927 1181.49 418.758 1180.05 418.758C1178.6 418.758 1177.43 419.927 1177.43 421.371C1177.43 422.814 1178.6 423.983 1180.05 423.983Z" stroke="#290272" stroke-opacity="0.4"/>
<path d="M1215.59 424.506C1217.32 424.506 1218.73 423.102 1218.73 421.37C1218.73 419.639 1217.32 418.235 1215.59 418.235C1213.86 418.235 1212.45 419.639 1212.45 421.37C1212.45 423.102 1213.86 424.506 1215.59 424.506Z" fill="#290272" fill-opacity="0.2"/>
<path d="M1253.23 423.983C1254.67 423.983 1255.84 422.814 1255.84 421.371C1255.84 419.927 1254.67 418.758 1253.23 418.758C1251.78 418.758 1250.61 419.927 1250.61 421.371C1250.61 422.814 1251.78 423.983 1253.23 423.983Z" stroke="#290272" stroke-opacity="0.4"/>
<path d="M1288.77 424.506C1290.5 424.506 1291.91 423.102 1291.91 421.37C1291.91 419.639 1290.5 418.235 1288.77 418.235C1287.04 418.235 1285.64 419.639 1285.64 421.37C1285.64 423.102 1287.04 424.506 1288.77 424.506Z" fill="#290272" fill-opacity="0.2"/>
<path d="M1326.41 423.983C1327.85 423.983 1329.02 422.814 1329.02 421.371C1329.02 419.927 1327.85 418.758 1326.41 418.758C1324.97 418.758 1323.79 419.927 1323.79 421.371C1323.79 422.814 1324.97 423.983 1326.41 423.983Z" stroke="#290272" stroke-opacity="0.4"/>
<path d="M630.136 472.584C631.869 472.584 633.273 471.18 633.273 469.449C633.273 467.717 631.869 466.313 630.136 466.313C628.404 466.313 627 467.717 627 469.449C627 471.18 628.404 472.584 630.136 472.584Z" fill="#290272" fill-opacity="0.2"/>
<path d="M667.773 472.062C669.216 472.062 670.386 470.892 670.386 469.449C670.386 468.006 669.216 466.836 667.773 466.836C666.329 466.836 665.159 468.006 665.159 469.449C665.159 470.892 666.329 472.062 667.773 472.062Z" stroke="#290272" stroke-opacity="0.4"/>
<path d="M703.318 472.584C705.05 472.584 706.454 471.18 706.454 469.449C706.454 467.717 705.05 466.313 703.318 466.313C701.586 466.313 700.182 467.717 700.182 469.449C700.182 471.18 701.586 472.584 703.318 472.584Z" fill="#290272" fill-opacity="0.2"/>
<path d="M740.954 472.062C742.398 472.062 743.568 470.892 743.568 469.449C743.568 468.006 742.398 466.836 740.954 466.836C739.511 466.836 738.341 468.006 738.341 469.449C738.341 470.892 739.511 472.062 740.954 472.062Z" stroke="#290272" stroke-opacity="0.4"/>
<path d="M776.5 472.584C778.232 472.584 779.636 471.18 779.636 469.449C779.636 467.717 778.232 466.313 776.5 466.313C774.768 466.313 773.364 467.717 773.364 469.449C773.364 471.18 774.768 472.584 776.5 472.584Z" fill="#290272" fill-opacity="0.2"/>
<path d="M814.137 472.062C815.58 472.062 816.75 470.892 816.75 469.449C816.75 468.006 815.58 466.836 814.137 466.836C812.693 466.836 811.523 468.006 811.523 469.449C811.523 470.892 812.693 472.062 814.137 472.062Z" stroke="#290272" stroke-opacity="0.4"/>
<path d="M849.682 472.584C851.414 472.584 852.818 471.18 852.818 469.449C852.818 467.717 851.414 466.313 849.682 466.313C847.95 466.313 846.545 467.717 846.545 469.449C846.545 471.18 847.95 472.584 849.682 472.584Z" fill="#290272" fill-opacity="0.2"/>
<path d="M887.318 472.062C888.761 472.062 889.931 470.892 889.931 469.449C889.931 468.006 888.761 466.836 887.318 466.836C885.874 466.836 884.704 468.006 884.704 469.449C884.704 470.892 885.874 472.062 887.318 472.062Z" stroke="#290272" stroke-opacity="0.4"/>
<path d="M922.864 472.584C924.596 472.584 926 471.18 926 469.449C926 467.717 924.596 466.313 922.864 466.313C921.132 466.313 919.728 467.717 919.728 469.449C919.728 471.18 921.132 472.584 922.864 472.584Z" fill="#290272" fill-opacity="0.2"/>
<path d="M960.5 472.062C961.944 472.062 963.114 470.892 963.114 469.449C963.114 468.006 961.944 466.836 960.5 466.836C959.057 466.836 957.887 468.006 957.887 469.449C957.887 470.892 959.057 472.062 960.5 472.062Z" stroke="#290272" stroke-opacity="0.4"/>
<path d="M996.046 472.584C997.778 472.584 999.182 471.18 999.182 469.449C999.182 467.717 997.778 466.313 996.046 466.313C994.313 466.313 992.909 467.717 992.909 469.449C992.909 471.18 994.313 472.584 996.046 472.584Z" fill="#290272" fill-opacity="0.2"/>
<path d="M1033.68 472.062C1035.13 472.062 1036.3 470.892 1036.3 469.449C1036.3 468.006 1035.13 466.836 1033.68 466.836C1032.24 466.836 1031.07 468.006 1031.07 469.449C1031.07 470.892 1032.24 472.062 1033.68 472.062Z" stroke="#290272" stroke-opacity="0.4"/>
<path d="M1069.23 472.584C1070.96 472.584 1072.36 471.18 1072.36 469.449C1072.36 467.717 1070.96 466.313 1069.23 466.313C1067.5 466.313 1066.09 467.717 1066.09 469.449C1066.09 471.18 1067.5 472.584 1069.23 472.584Z" fill="#290272" fill-opacity="0.2"/>
<path d="M1106.86 472.062C1108.31 472.062 1109.48 470.892 1109.48 469.449C1109.48 468.006 1108.31 466.836 1106.86 466.836C1105.42 466.836 1104.25 468.006 1104.25 469.449C1104.25 470.892 1105.42 472.062 1106.86 472.062Z" stroke="#290272" stroke-opacity="0.4"/>
<path d="M1142.41 472.584C1144.14 472.584 1145.55 471.18 1145.55 469.449C1145.55 467.717 1144.14 466.313 1142.41 466.313C1140.68 466.313 1139.27 467.717 1139.27 469.449C1139.27 471.18 1140.68 472.584 1142.41 472.584Z" fill="#290272" fill-opacity="0.2"/>
<path d="M1180.05 472.062C1181.49 472.062 1182.66 470.892 1182.66 469.449C1182.66 468.006 1181.49 466.836 1180.05 466.836C1178.6 466.836 1177.43 468.006 1177.43 469.449C1177.43 470.892 1178.6 472.062 1180.05 472.062Z" stroke="#290272" stroke-opacity="0.4"/>
<path d="M1215.59 472.584C1217.32 472.584 1218.73 471.18 1218.73 469.449C1218.73 467.717 1217.32 466.313 1215.59 466.313C1213.86 466.313 1212.45 467.717 1212.45 469.449C1212.45 471.18 1213.86 472.584 1215.59 472.584Z" fill="#290272" fill-opacity="0.2"/>
<path d="M1253.23 472.062C1254.67 472.062 1255.84 470.892 1255.84 469.449C1255.84 468.006 1254.67 466.836 1253.23 466.836C1251.78 466.836 1250.61 468.006 1250.61 469.449C1250.61 470.892 1251.78 472.062 1253.23 472.062Z" stroke="#290272" stroke-opacity="0.4"/>
<path d="M1288.77 472.584C1290.5 472.584 1291.91 471.18 1291.91 469.449C1291.91 467.717 1290.5 466.313 1288.77 466.313C1287.04 466.313 1285.64 467.717 1285.64 469.449C1285.64 471.18 1287.04 472.584 1288.77 472.584Z" fill="#290272" fill-opacity="0.2"/>
<path d="M1326.41 472.062C1327.85 472.062 1329.02 470.892 1329.02 469.449C1329.02 468.006 1327.85 466.836 1326.41 466.836C1324.97 466.836 1323.79 468.006 1323.79 469.449C1323.79 470.892 1324.97 472.062 1326.41 472.062Z" stroke="#290272" stroke-opacity="0.4"/>
<path d="M630.136 520.663C631.869 520.663 633.273 519.259 633.273 517.527C633.273 515.795 631.869 514.392 630.136 514.392C628.404 514.392 627 515.795 627 517.527C627 519.259 628.404 520.663 630.136 520.663Z" fill="#290272" fill-opacity="0.2"/>
<path d="M667.773 520.14C669.216 520.14 670.386 518.97 670.386 517.527C670.386 516.084 669.216 514.914 667.773 514.914C666.329 514.914 665.159 516.084 665.159 517.527C665.159 518.97 666.329 520.14 667.773 520.14Z" stroke="#290272" stroke-opacity="0.4"/>
<path d="M703.318 520.663C705.05 520.663 706.454 519.259 706.454 517.527C706.454 515.795 705.05 514.392 703.318 514.392C701.586 514.392 700.182 515.795 700.182 517.527C700.182 519.259 701.586 520.663 703.318 520.663Z" fill="#290272" fill-opacity="0.2"/>
<path d="M740.954 520.14C742.398 520.14 743.568 518.97 743.568 517.527C743.568 516.084 742.398 514.914 740.954 514.914C739.511 514.914 738.341 516.084 738.341 517.527C738.341 518.97 739.511 520.14 740.954 520.14Z" stroke="#290272" stroke-opacity="0.4"/>
<path d="M776.5 520.663C778.232 520.663 779.636 519.259 779.636 517.527C779.636 515.795 778.232 514.392 776.5 514.392C774.768 514.392 773.364 515.795 773.364 517.527C773.364 519.259 774.768 520.663 776.5 520.663Z" fill="#290272" fill-opacity="0.2"/>
<path d="M814.137 520.14C815.58 520.14 816.75 518.97 816.75 517.527C816.75 516.084 815.58 514.914 814.137 514.914C812.693 514.914 811.523 516.084 811.523 517.527C811.523 518.97 812.693 520.14 814.137 520.14Z" stroke="#290272" stroke-opacity="0.4"/>
<path d="M849.682 520.663C851.414 520.663 852.818 519.259 852.818 517.527C852.818 515.795 851.414 514.392 849.682 514.392C847.95 514.392 846.545 515.795 846.545 517.527C846.545 519.259 847.95 520.663 849.682 520.663Z" fill="#290272" fill-opacity="0.2"/>
<path d="M887.318 520.14C888.761 520.14 889.931 518.97 889.931 517.527C889.931 516.084 888.761 514.914 887.318 514.914C885.874 514.914 884.704 516.084 884.704 517.527C884.704 518.97 885.874 520.14 887.318 520.14Z" stroke="#290272" stroke-opacity="0.4"/>
<path d="M922.864 520.663C924.596 520.663 926 519.259 926 517.527C926 515.795 924.596 514.392 922.864 514.392C921.132 514.392 919.728 515.795 919.728 517.527C919.728 519.259 921.132 520.663 922.864 520.663Z" fill="#290272" fill-opacity="0.2"/>
<path d="M960.5 520.14C961.944 520.14 963.114 518.97 963.114 517.527C963.114 516.084 961.944 514.914 960.5 514.914C959.057 514.914 957.887 516.084 957.887 517.527C957.887 518.97 959.057 520.14 960.5 520.14Z" stroke="#290272" stroke-opacity="0.4"/>
<path d="M996.046 520.663C997.778 520.663 999.182 519.259 999.182 517.527C999.182 515.795 997.778 514.392 996.046 514.392C994.313 514.392 992.909 515.795 992.909 517.527C992.909 519.259 994.313 520.663 996.046 520.663Z" fill="#290272" fill-opacity="0.2"/>
<path d="M1033.68 520.14C1035.13 520.14 1036.3 518.97 1036.3 517.527C1036.3 516.084 1035.13 514.914 1033.68 514.914C1032.24 514.914 1031.07 516.084 1031.07 517.527C1031.07 518.97 1032.24 520.14 1033.68 520.14Z" stroke="#290272" stroke-opacity="0.4"/>
<path d="M1069.23 520.663C1070.96 520.663 1072.36 519.259 1072.36 517.527C1072.36 515.795 1070.96 514.392 1069.23 514.392C1067.5 514.392 1066.09 515.795 1066.09 517.527C1066.09 519.259 1067.5 520.663 1069.23 520.663Z" fill="#290272" fill-opacity="0.2"/>
<path d="M1106.86 520.14C1108.31 520.14 1109.48 518.97 1109.48 517.527C1109.48 516.084 1108.31 514.914 1106.86 514.914C1105.42 514.914 1104.25 516.084 1104.25 517.527C1104.25 518.97 1105.42 520.14 1106.86 520.14Z" stroke="#290272" stroke-opacity="0.4"/>
<path d="M1142.41 520.663C1144.14 520.663 1145.55 519.259 1145.55 517.527C1145.55 515.795 1144.14 514.392 1142.41 514.392C1140.68 514.392 1139.27 515.795 1139.27 517.527C1139.27 519.259 1140.68 520.663 1142.41 520.663Z" fill="#290272" fill-opacity="0.2"/>
<path d="M1180.05 520.14C1181.49 520.14 1182.66 518.97 1182.66 517.527C1182.66 516.084 1181.49 514.914 1180.05 514.914C1178.6 514.914 1177.43 516.084 1177.43 517.527C1177.43 518.97 1178.6 520.14 1180.05 520.14Z" stroke="#290272" stroke-opacity="0.4"/>
<path d="M1215.59 520.663C1217.32 520.663 1218.73 519.259 1218.73 517.527C1218.73 515.795 1217.32 514.392 1215.59 514.392C1213.86 514.392 1212.45 515.795 1212.45 517.527C1212.45 519.259 1213.86 520.663 1215.59 520.663Z" fill="#290272" fill-opacity="0.2"/>
<path d="M1253.23 520.14C1254.67 520.14 1255.84 518.97 1255.84 517.527C1255.84 516.084 1254.67 514.914 1253.23 514.914C1251.78 514.914 1250.61 516.084 1250.61 517.527C1250.61 518.97 1251.78 520.14 1253.23 520.14Z" stroke="#290272" stroke-opacity="0.4"/>
<path d="M1288.77 520.663C1290.5 520.663 1291.91 519.259 1291.91 517.527C1291.91 515.795 1290.5 514.392 1288.77 514.392C1287.04 514.392 1285.64 515.795 1285.64 517.527C1285.64 519.259 1287.04 520.663 1288.77 520.663Z" fill="#290272" fill-opacity="0.2"/>
<path d="M1326.41 520.14C1327.85 520.14 1329.02 518.97 1329.02 517.527C1329.02 516.084 1327.85 514.914 1326.41 514.914C1324.97 514.914 1323.79 516.084 1323.79 517.527C1323.79 518.97 1324.97 520.14 1326.41 520.14Z" stroke="#290272" stroke-opacity="0.4"/>
<path d="M630.136 568.741C631.869 568.741 633.273 567.337 633.273 565.605C633.273 563.874 631.869 562.47 630.136 562.47C628.404 562.47 627 563.874 627 565.605C627 567.337 628.404 568.741 630.136 568.741Z" fill="#290272" fill-opacity="0.2"/>
<path d="M667.773 568.219C669.216 568.219 670.386 567.049 670.386 565.606C670.386 564.163 669.216 562.993 667.773 562.993C666.329 562.993 665.159 564.163 665.159 565.606C665.159 567.049 666.329 568.219 667.773 568.219Z" stroke="#290272" stroke-opacity="0.4"/>
<path d="M703.318 568.741C705.05 568.741 706.454 567.337 706.454 565.605C706.454 563.874 705.05 562.47 703.318 562.47C701.586 562.47 700.182 563.874 700.182 565.605C700.182 567.337 701.586 568.741 703.318 568.741Z" fill="#290272" fill-opacity="0.2"/>
<path d="M740.954 568.219C742.398 568.219 743.568 567.049 743.568 565.606C743.568 564.163 742.398 562.993 740.954 562.993C739.511 562.993 738.341 564.163 738.341 565.606C738.341 567.049 739.511 568.219 740.954 568.219Z" stroke="#290272" stroke-opacity="0.4"/>
<path d="M776.5 568.741C778.232 568.741 779.636 567.337 779.636 565.605C779.636 563.874 778.232 562.47 776.5 562.47C774.768 562.47 773.364 563.874 773.364 565.605C773.364 567.337 774.768 568.741 776.5 568.741Z" fill="#290272" fill-opacity="0.2"/>
<path d="M814.137 568.219C815.58 568.219 816.75 567.049 816.75 565.606C816.75 564.163 815.58 562.993 814.137 562.993C812.693 562.993 811.523 564.163 811.523 565.606C811.523 567.049 812.693 568.219 814.137 568.219Z" stroke="#290272" stroke-opacity="0.4"/>
<path d="M849.682 568.741C851.414 568.741 852.818 567.337 852.818 565.605C852.818 563.874 851.414 562.47 849.682 562.47C847.95 562.47 846.545 563.874 846.545 565.605C846.545 567.337 847.95 568.741 849.682 568.741Z" fill="#290272" fill-opacity="0.2"/>
<path d="M887.318 568.219C888.761 568.219 889.931 567.049 889.931 565.606C889.931 564.163 888.761 562.993 887.318 562.993C885.874 562.993 884.704 564.163 884.704 565.606C884.704 567.049 885.874 568.219 887.318 568.219Z" stroke="#290272" stroke-opacity="0.4"/>
<path d="M922.864 568.741C924.596 568.741 926 567.337 926 565.605C926 563.874 924.596 562.47 922.864 562.47C921.132 562.47 919.728 563.874 919.728 565.605C919.728 567.337 921.132 568.741 922.864 568.741Z" fill="#290272" fill-opacity="0.2"/>
<path d="M960.5 568.219C961.944 568.219 963.114 567.049 963.114 565.606C963.114 564.163 961.944 562.993 960.5 562.993C959.057 562.993 957.887 564.163 957.887 565.606C957.887 567.049 959.057 568.219 960.5 568.219Z" stroke="#290272" stroke-opacity="0.4"/>
<path d="M996.046 568.741C997.778 568.741 999.182 567.337 999.182 565.605C999.182 563.874 997.778 562.47 996.046 562.47C994.313 562.47 992.909 563.874 992.909 565.605C992.909 567.337 994.313 568.741 996.046 568.741Z" fill="#290272" fill-opacity="0.2"/>
<path d="M1033.68 568.219C1035.13 568.219 1036.3 567.049 1036.3 565.606C1036.3 564.163 1035.13 562.993 1033.68 562.993C1032.24 562.993 1031.07 564.163 1031.07 565.606C1031.07 567.049 1032.24 568.219 1033.68 568.219Z" stroke="#290272" stroke-opacity="0.4"/>
<path d="M1069.23 568.741C1070.96 568.741 1072.36 567.337 1072.36 565.605C1072.36 563.874 1070.96 562.47 1069.23 562.47C1067.5 562.47 1066.09 563.874 1066.09 565.605C1066.09 567.337 1067.5 568.741 1069.23 568.741Z" fill="#290272" fill-opacity="0.2"/>
<path d="M1106.86 568.219C1108.31 568.219 1109.48 567.049 1109.48 565.606C1109.48 564.163 1108.31 562.993 1106.86 562.993C1105.42 562.993 1104.25 564.163 1104.25 565.606C1104.25 567.049 1105.42 568.219 1106.86 568.219Z" stroke="#290272" stroke-opacity="0.4"/>
<path d="M1142.41 568.741C1144.14 568.741 1145.55 567.337 1145.55 565.605C1145.55 563.874 1144.14 562.47 1142.41 562.47C1140.68 562.47 1139.27 563.874 1139.27 565.605C1139.27 567.337 1140.68 568.741 1142.41 568.741Z" fill="#290272" fill-opacity="0.2"/>
<path d="M1180.05 568.219C1181.49 568.219 1182.66 567.049 1182.66 565.606C1182.66 564.163 1181.49 562.993 1180.05 562.993C1178.6 562.993 1177.43 564.163 1177.43 565.606C1177.43 567.049 1178.6 568.219 1180.05 568.219Z" stroke="#290272" stroke-opacity="0.4"/>
<path d="M1215.59 568.741C1217.32 568.741 1218.73 567.337 1218.73 565.605C1218.73 563.874 1217.32 562.47 1215.59 562.47C1213.86 562.47 1212.45 563.874 1212.45 565.605C1212.45 567.337 1213.86 568.741 1215.59 568.741Z" fill="#290272" fill-opacity="0.2"/>
<path d="M1253.23 568.219C1254.67 568.219 1255.84 567.049 1255.84 565.606C1255.84 564.163 1254.67 562.993 1253.23 562.993C1251.78 562.993 1250.61 564.163 1250.61 565.606C1250.61 567.049 1251.78 568.219 1253.23 568.219Z" stroke="#290272" stroke-opacity="0.4"/>
<path d="M1288.77 568.741C1290.5 568.741 1291.91 567.337 1291.91 565.605C1291.91 563.874 1290.5 562.47 1288.77 562.47C1287.04 562.47 1285.64 563.874 1285.64 565.605C1285.64 567.337 1287.04 568.741 1288.77 568.741Z" fill="#290272" fill-opacity="0.2"/>
<path d="M1326.41 568.219C1327.85 568.219 1329.02 567.049 1329.02 565.606C1329.02 564.163 1327.85 562.993 1326.41 562.993C1324.97 562.993 1323.79 564.163 1323.79 565.606C1323.79 567.049 1324.97 568.219 1326.41 568.219Z" stroke="#290272" stroke-opacity="0.4"/>
<path d="M630.136 616.819C631.869 616.819 633.273 615.415 633.273 613.684C633.273 611.952 631.869 610.548 630.136 610.548C628.404 610.548 627 611.952 627 613.684C627 615.415 628.404 616.819 630.136 616.819Z" fill="#290272" fill-opacity="0.2"/>
<path d="M667.773 616.297C669.216 616.297 670.386 615.127 670.386 613.684C670.386 612.241 669.216 611.071 667.773 611.071C666.329 611.071 665.159 612.241 665.159 613.684C665.159 615.127 666.329 616.297 667.773 616.297Z" stroke="#290272" stroke-opacity="0.4"/>
<path d="M703.318 616.819C705.05 616.819 706.454 615.415 706.454 613.684C706.454 611.952 705.05 610.548 703.318 610.548C701.586 610.548 700.182 611.952 700.182 613.684C700.182 615.415 701.586 616.819 703.318 616.819Z" fill="#290272" fill-opacity="0.2"/>
<path d="M740.954 616.297C742.398 616.297 743.568 615.127 743.568 613.684C743.568 612.241 742.398 611.071 740.954 611.071C739.511 611.071 738.341 612.241 738.341 613.684C738.341 615.127 739.511 616.297 740.954 616.297Z" stroke="#290272" stroke-opacity="0.4"/>
<path d="M776.5 616.819C778.232 616.819 779.636 615.415 779.636 613.684C779.636 611.952 778.232 610.548 776.5 610.548C774.768 610.548 773.364 611.952 773.364 613.684C773.364 615.415 774.768 616.819 776.5 616.819Z" fill="#290272" fill-opacity="0.2"/>
<path d="M814.137 616.297C815.58 616.297 816.75 615.127 816.75 613.684C816.75 612.241 815.58 611.071 814.137 611.071C812.693 611.071 811.523 612.241 811.523 613.684C811.523 615.127 812.693 616.297 814.137 616.297Z" stroke="#290272" stroke-opacity="0.4"/>
<path d="M849.682 616.819C851.414 616.819 852.818 615.415 852.818 613.684C852.818 611.952 851.414 610.548 849.682 610.548C847.95 610.548 846.545 611.952 846.545 613.684C846.545 615.415 847.95 616.819 849.682 616.819Z" fill="#290272" fill-opacity="0.2"/>
<path d="M887.318 616.297C888.761 616.297 889.931 615.127 889.931 613.684C889.931 612.241 888.761 611.071 887.318 611.071C885.874 611.071 884.704 612.241 884.704 613.684C884.704 615.127 885.874 616.297 887.318 616.297Z" stroke="#290272" stroke-opacity="0.4"/>
<path d="M922.864 616.819C924.596 616.819 926 615.415 926 613.684C926 611.952 924.596 610.548 922.864 610.548C921.132 610.548 919.728 611.952 919.728 613.684C919.728 615.415 921.132 616.819 922.864 616.819Z" fill="#290272" fill-opacity="0.2"/>
<path d="M960.5 616.297C961.944 616.297 963.114 615.127 963.114 613.684C963.114 612.241 961.944 611.071 960.5 611.071C959.057 611.071 957.887 612.241 957.887 613.684C957.887 615.127 959.057 616.297 960.5 616.297Z" stroke="#290272" stroke-opacity="0.4"/>
<path d="M996.046 616.819C997.778 616.819 999.182 615.415 999.182 613.684C999.182 611.952 997.778 610.548 996.046 610.548C994.313 610.548 992.909 611.952 992.909 613.684C992.909 615.415 994.313 616.819 996.046 616.819Z" fill="#290272" fill-opacity="0.2"/>
<path d="M1033.68 616.297C1035.13 616.297 1036.3 615.127 1036.3 613.684C1036.3 612.241 1035.13 611.071 1033.68 611.071C1032.24 611.071 1031.07 612.241 1031.07 613.684C1031.07 615.127 1032.24 616.297 1033.68 616.297Z" stroke="#290272" stroke-opacity="0.4"/>
<path d="M1069.23 616.819C1070.96 616.819 1072.36 615.415 1072.36 613.684C1072.36 611.952 1070.96 610.548 1069.23 610.548C1067.5 610.548 1066.09 611.952 1066.09 613.684C1066.09 615.415 1067.5 616.819 1069.23 616.819Z" fill="#290272" fill-opacity="0.2"/>
<path d="M1106.86 616.297C1108.31 616.297 1109.48 615.127 1109.48 613.684C1109.48 612.241 1108.31 611.071 1106.86 611.071C1105.42 611.071 1104.25 612.241 1104.25 613.684C1104.25 615.127 1105.42 616.297 1106.86 616.297Z" stroke="#290272" stroke-opacity="0.4"/>
<path d="M1142.41 616.819C1144.14 616.819 1145.55 615.415 1145.55 613.684C1145.55 611.952 1144.14 610.548 1142.41 610.548C1140.68 610.548 1139.27 611.952 1139.27 613.684C1139.27 615.415 1140.68 616.819 1142.41 616.819Z" fill="#290272" fill-opacity="0.2"/>
<path d="M1180.05 616.297C1181.49 616.297 1182.66 615.127 1182.66 613.684C1182.66 612.241 1181.49 611.071 1180.05 611.071C1178.6 611.071 1177.43 612.241 1177.43 613.684C1177.43 615.127 1178.6 616.297 1180.05 616.297Z" stroke="#290272" stroke-opacity="0.4"/>
<path d="M1215.59 616.819C1217.32 616.819 1218.73 615.415 1218.73 613.684C1218.73 611.952 1217.32 610.548 1215.59 610.548C1213.86 610.548 1212.45 611.952 1212.45 613.684C1212.45 615.415 1213.86 616.819 1215.59 616.819Z" fill="#290272" fill-opacity="0.2"/>
<path d="M1253.23 616.297C1254.67 616.297 1255.84 615.127 1255.84 613.684C1255.84 612.241 1254.67 611.071 1253.23 611.071C1251.78 611.071 1250.61 612.241 1250.61 613.684C1250.61 615.127 1251.78 616.297 1253.23 616.297Z" stroke="#290272" stroke-opacity="0.4"/>
<path d="M1288.77 616.819C1290.5 616.819 1291.91 615.415 1291.91 613.684C1291.91 611.952 1290.5 610.548 1288.77 610.548C1287.04 610.548 1285.64 611.952 1285.64 613.684C1285.64 615.415 1287.04 616.819 1288.77 616.819Z" fill="#290272" fill-opacity="0.2"/>
<path d="M1326.41 616.297C1327.85 616.297 1329.02 615.127 1329.02 613.684C1329.02 612.241 1327.85 611.071 1326.41 611.071C1324.97 611.071 1323.79 612.241 1323.79 613.684C1323.79 615.127 1324.97 616.297 1326.41 616.297Z" stroke="#290272" stroke-opacity="0.4"/>
</svg>
