<svg width="25" height="24" viewBox="0 0 25 24" fill="none" xmlns="http://www.w3.org/2000/svg">
<path fill-rule="evenodd" clip-rule="evenodd" d="M15.8373 7.75805L16.0507 8.44987L16.7424 8.6632C17.9568 9.03768 19.2787 8.70981 20.1772 7.81121L21.565 6.42323C22.3564 7.94537 22.7671 9.81744 22.7671 12.009C22.7671 18.5859 19.0675 22.2853 12.4907 22.2853C5.91384 22.2853 2.21436 18.5859 2.21436 12.009C2.21436 5.43216 5.91384 1.73267 12.4907 1.73267C14.6827 1.73267 16.5551 2.14361 18.0775 2.93508L16.6892 4.32335C15.7907 5.22192 15.4628 6.54376 15.8373 7.75805Z" fill="white"/>
<path d="M22.7671 12.009C22.7671 18.5859 19.0675 22.2853 12.4907 22.2853C5.91384 22.2853 2.21436 18.5859 2.21436 12.009C2.21436 5.43216 5.91384 1.73267 12.4907 1.73267" stroke="#0090FF" stroke-width="1.71429" stroke-linecap="round" stroke-linejoin="round"/>
<path d="M10.8462 6.83618C8.4603 7.37767 7.14673 9.18204 7.14673 12.0081C7.14673 15.428 9.07047 17.3518 12.4904 17.3518C15.4552 17.3518 17.2955 15.9061 17.7329 13.2931" stroke="#0090FF" stroke-width="1.71429" stroke-linecap="round" stroke-linejoin="round"/>
<path d="M12.4905 12.0081L16.0519 8.44666" stroke="#0090FF" stroke-width="1.71429" stroke-linecap="round" stroke-linejoin="round"/>
<path d="M16.0505 8.44993L15.8372 7.75811C15.4627 6.54381 15.7905 5.22198 16.6891 4.3234L19.2976 1.71472L20.1198 4.38054L22.7855 5.20264L20.177 7.81127C19.2784 8.70987 17.9565 9.03774 16.7422 8.66325L16.0505 8.44993Z" fill="#EFF7FF"/>
<path d="M16.0505 8.44993L15.8372 7.75811C15.4627 6.54381 15.7905 5.22198 16.6891 4.3234L19.2976 1.71472L20.1198 4.38054L22.7855 5.20264L20.177 7.81127C19.2784 8.70986 17.9565 9.03774 16.7422 8.66325L16.0505 8.44993Z" stroke="#0090FF" stroke-width="1.71429" stroke-linecap="round" stroke-linejoin="round"/>
</svg>
