<svg width="40" height="28" viewBox="0 0 40 28" fill="none" xmlns="http://www.w3.org/2000/svg">
<path d="M37.9199 11.2H2.0799C0.534302 11.2 0.399902 12.4516 0.399902 14C0.399902 15.5484 0.534302 16.8 2.0799 16.8H37.9199C39.4655 16.8 39.5999 15.5484 39.5999 14C39.5999 12.4516 39.4655 11.2 37.9199 11.2ZM37.9199 22.4H2.0799C0.534302 22.4 0.399902 23.6516 0.399902 25.2C0.399902 26.7484 0.534302 28 2.0799 28H37.9199C39.4655 28 39.5999 26.7484 39.5999 25.2C39.5999 23.6516 39.4655 22.4 37.9199 22.4ZM2.0799 5.6H37.9199C39.4655 5.6 39.5999 4.3484 39.5999 2.8C39.5999 1.2516 39.4655 0 37.9199 0H2.0799C0.534302 0 0.399902 1.2516 0.399902 2.8C0.399902 4.3484 0.534302 5.6 2.0799 5.6Z" fill="white"/>
</svg>
