<svg width="149" height="33" viewBox="0 0 149 33" fill="none" xmlns="http://www.w3.org/2000/svg">
<path d="M110.792 16.3979V14.1008H108.495V16.3979H110.792Z" fill="#ED342B"/>
<path d="M108.487 6.09156V11.8344C107.165 11.8344 106.121 12.9133 106.121 14.2011V16.2894C106.121 17.612 107.165 18.6561 108.487 18.6561V24.399C104.032 24.399 100.413 20.7793 100.413 16.3242V14.1315C100.413 9.67646 104.032 6.05675 108.487 6.09156Z" fill="#ED342B"/>
<path d="M110.819 6.09095V11.8338C112.176 11.8338 113.29 12.9475 113.29 14.3049V18.6903H110.854V24.4332H118.963V13.1216C118.963 9.2234 115.796 6.05615 111.898 6.05615H110.819V6.09095Z" fill="#ED342B"/>
<path d="M16.1495 20.6742H8.35319L8.03995 21.6487C7.55268 23.1801 6.16048 24.2242 4.55945 24.2242H0L9.18851 0H15.2446L24.4331 24.2242H19.8736C18.2726 24.2242 16.8456 23.1801 16.3931 21.6487L16.1495 20.6742ZM14.6181 15.8015L12.2165 8.14437L9.815 15.8015H14.6181Z" fill="white"/>
<path d="M45.3855 15.2098C45.3855 22.1359 40.2344 24.4331 37.3456 24.4331C34.8744 24.4331 33.6563 23.3193 33.2386 22.7624V32.7166H30.0017C28.2615 32.7166 26.8345 31.2896 26.8345 29.5494V6.19527H33.2386V7.76149C33.5518 7.44824 35.0832 6.02124 37.45 6.02124C40.2692 6.02124 45.3855 8.4576 45.3855 15.2098ZM39.1902 15.2098C39.1902 12.2861 37.6588 11.1376 35.9534 11.1376C34.1783 11.1376 32.9602 12.5646 32.9602 15.2098C32.9602 18.029 34.1783 19.3167 35.9534 19.3167C37.6588 19.3167 39.1902 18.1334 39.1902 15.2098Z" fill="white"/>
<path d="M66.4778 15.2098C66.4778 22.1359 61.3267 24.4331 58.4379 24.4331C55.9667 24.4331 54.7485 23.3193 54.3309 22.7624V32.7166H51.094C49.3538 32.7166 47.9268 31.2896 47.9268 29.5494V6.19527H54.3309V7.76149C54.6441 7.44824 56.1755 6.02124 58.5423 6.02124C61.3267 6.02124 66.4778 8.4576 66.4778 15.2098ZM60.2825 15.2098C60.2825 12.2861 58.7511 11.1376 57.0457 11.1376C55.2706 11.1376 54.0524 12.5646 54.0524 15.2098C54.0524 18.029 55.2706 19.3167 57.0457 19.3167C58.7511 19.3167 60.2825 18.1334 60.2825 15.2098Z" fill="white"/>
<path d="M97.9414 13.922V24.1894H91.5373V14.0264C91.5373 12.1121 90.4235 11.2768 89.275 11.2768C87.2911 11.2768 86.6298 13.1215 86.6298 13.4695V24.1894H80.2257V14.0264C80.2257 12.1121 79.0771 11.2768 77.9634 11.2768C76.0491 11.2768 75.3182 12.8778 75.3182 13.8872V24.1894H68.9141V6.19526H75.3182V9.36253C75.8751 8.14436 77.3717 6.02124 80.4693 6.02124C82.9753 6.02124 84.9939 7.03059 86.0033 9.57135C86.8038 7.90071 88.9965 6.02124 91.6765 6.02124C95.157 6.02124 97.9414 8.21396 97.9414 13.922Z" fill="white"/>
<path d="M134.382 6.16047V11.7641C133.581 11.7293 133.407 11.7293 133.198 11.7293C129.544 11.7293 128.117 13.0518 127.804 15.0705V24.1894H125.089C123.07 24.1894 121.399 22.5536 121.399 20.5001V6.16047H127.804V9.815C128.291 7.48306 129.822 5.98645 132.711 5.98645C133.094 6.02126 133.581 6.02126 134.382 6.16047Z" fill="white"/>
<path d="M149 19.2819V23.8066C148.234 24.1198 146.946 24.3983 145.485 24.3983C141.726 24.3983 138.802 23.4237 138.802 18.203V11.1376H135.739V6.19527H138.802V1.70544H145.206V6.19527H148.93V11.1376H145.206V17.4721C145.206 18.6555 145.693 19.4908 147.26 19.4908C147.643 19.4908 148.234 19.4212 149 19.2819Z" fill="white"/>
</svg>
