<svg width="19" height="19" viewBox="0 0 19 19" fill="none" xmlns="http://www.w3.org/2000/svg">
<path d="M10.7925 10.3979V8.10083H8.49536V10.3979H10.7925Z" fill="#ED342B"/>
<path d="M8.48735 0.0915575V5.83438C7.16476 5.83438 6.12062 6.91332 6.12062 8.20111V10.2894C6.12062 11.612 7.16476 12.6561 8.48735 12.6561V18.399C4.03232 18.399 0.412598 14.7793 0.412598 10.3242V8.13149C0.412598 3.67646 4.03232 0.0567526 8.48735 0.0915575Z" fill="#ED342B"/>
<path d="M10.8188 0.0909488V5.83377C12.1762 5.83377 13.29 6.94752 13.29 8.30491V12.6903H10.8536V18.4332H18.9632V7.12155C18.9632 3.2234 15.7959 0.0561523 11.8978 0.0561523H10.8188V0.0909488Z" fill="#ED342B"/>
</svg>
