<svg width="28" height="28" viewBox="0 0 28 28" fill="none" xmlns="http://www.w3.org/2000/svg">
<g clip-path="url(#clip0_105_3598)">
<path d="M14 6.41669C15.083 6.41669 16.1216 6.84689 16.8874 7.61267C17.6531 8.37844 18.0833 9.41705 18.0833 10.5C18.0833 11.583 17.6531 12.6216 16.8874 13.3874C16.1216 14.1531 15.083 14.5834 14 14.5834C12.917 14.5834 11.8784 14.1531 11.1126 13.3874C10.3469 12.6216 9.91667 11.583 9.91667 10.5C9.91667 9.41705 10.3469 8.37844 11.1126 7.61267C11.8784 6.84689 12.917 6.41669 14 6.41669ZM5.83333 9.33335C6.48667 9.33335 7.09333 9.50835 7.61833 9.82335C7.44333 11.4917 7.93333 13.1484 8.93667 14.4434C8.35333 15.5634 7.18667 16.3334 5.83333 16.3334C4.90508 16.3334 4.01484 15.9646 3.35846 15.3082C2.70208 14.6519 2.33333 13.7616 2.33333 12.8334C2.33333 11.9051 2.70208 11.0149 3.35846 10.3585C4.01484 9.7021 4.90508 9.33335 5.83333 9.33335ZM22.1667 9.33335C23.0949 9.33335 23.9852 9.7021 24.6415 10.3585C25.2979 11.0149 25.6667 11.9051 25.6667 12.8334C25.6667 13.7616 25.2979 14.6519 24.6415 15.3082C23.9852 15.9646 23.0949 16.3334 22.1667 16.3334C20.8133 16.3334 19.6467 15.5634 19.0633 14.4434C20.0805 13.1302 20.5527 11.4756 20.3817 9.82335C20.9067 9.50835 21.5133 9.33335 22.1667 9.33335ZM6.41667 21.2917C6.41667 18.8767 9.81167 16.9167 14 16.9167C18.1883 16.9167 21.5833 18.8767 21.5833 21.2917V23.3334H6.41667V21.2917ZM0 23.3334V21.5834C0 19.9617 2.205 18.5967 5.19167 18.2C4.50333 18.9934 4.08333 20.09 4.08333 21.2917V23.3334H0ZM28 23.3334H23.9167V21.2917C23.9167 20.09 23.4967 18.9934 22.8083 18.2C25.795 18.5967 28 19.9617 28 21.5834V23.3334Z" fill="#252A2F"/>
</g>
<defs>
<clipPath id="clip0_105_3598">
<rect width="28" height="28" fill="white"/>
</clipPath>
</defs>
</svg>
