<svg width="24" height="24" viewBox="0 0 24 24" fill="none" xmlns="http://www.w3.org/2000/svg">
<g clip-path="url(#clip0_591_11112)">
<g clip-path="url(#clip1_591_11112)">
<path d="M1.71854 19.1109C1.90236 20.7566 3.21784 22.0715 4.86271 22.2618C6.72137 22.4767 8.64197 22.6888 10.607 22.6888C12.5721 22.6888 14.4927 22.4767 16.3514 22.2618C17.9963 22.0715 19.3117 20.7566 19.4956 19.1109C19.7022 17.2612 19.9015 15.3498 19.9015 13.3943C19.9015 11.4387 19.7022 9.5274 19.4956 7.67755C19.3117 6.03194 17.9963 4.7171 16.3514 4.52683C14.4927 4.31182 12.5721 4.09973 10.607 4.09973C8.64197 4.09973 6.72137 4.31182 4.86271 4.52683C3.21784 4.7171 1.90236 6.03194 1.71854 7.67755C1.5119 9.5274 1.3125 11.4387 1.3125 13.3943C1.3125 15.3498 1.5119 17.2612 1.71854 19.1109Z" fill="white"/>
<path d="M9.2399 4.13171C7.74967 4.19883 6.28798 4.36199 4.86273 4.52686C3.21784 4.71713 1.90236 6.03197 1.71854 7.67758C1.5119 9.52743 1.3125 11.4388 1.3125 13.3943C1.3125 15.3498 1.5119 17.2612 1.71854 19.111C1.90236 20.7566 3.21784 22.0714 4.86271 22.2617C6.72137 22.4767 8.64197 22.6889 10.607 22.6889C12.5721 22.6889 14.4927 22.4767 16.3514 22.2617C17.9963 22.0714 19.3117 20.7568 19.4956 19.111C19.6442 17.7804 19.7891 16.4179 19.8587 15.03" stroke="#0090FF" stroke-width="2" stroke-linecap="round"/>
<path d="M17.3285 2.23312L11.0116 9.40083L10.1462 13.4711C10.0069 14.126 10.6896 14.7457 11.3289 14.5447L15.3795 13.2713L21.9043 6.40578C22.9879 5.26549 22.7988 3.35828 21.487 2.19803C20.2061 1.06496 18.3442 1.08067 17.3285 2.23312Z" fill="white" stroke="#0090FF" stroke-width="2" stroke-linecap="round" stroke-linejoin="round"/>
</g>
</g>
<defs>
<clipPath id="clip0_591_11112">
<rect width="24" height="24" fill="white"/>
</clipPath>
<clipPath id="clip1_591_11112">
<rect width="24" height="24" fill="white"/>
</clipPath>
</defs>
</svg>
