<svg width="24" height="24" viewBox="0 0 24 24" fill="none" xmlns="http://www.w3.org/2000/svg">
<path d="M11 8C11 7.44772 11.4477 7 12 7H16C16.5523 7 17 7.44772 17 8C17 8.55228 16.5523 9 16 9H12C11.4477 9 11 8.55228 11 8Z" fill="white"/>
<path d="M12 11C11.4477 11 11 11.4477 11 12C11 12.5523 11.4477 13 12 13H16C16.5523 13 17 12.5523 17 12C17 11.4477 16.5523 11 16 11H12Z" fill="white"/>
<path d="M11 16C11 15.4477 11.4477 15 12 15H16C16.5523 15 17 15.4477 17 16C17 16.5523 16.5523 17 16 17H12C11.4477 17 11 16.5523 11 16Z" fill="white"/>
<path d="M8 7C7.44772 7 7 7.44772 7 8C7 8.55228 7.44772 9 8 9H9C9.55228 9 10 8.55228 10 8C10 7.44772 9.55228 7 9 7H8Z" fill="white"/>
<path d="M7 12C7 11.4477 7.44772 11 8 11H9C9.55228 11 10 11.4477 10 12C10 12.5523 9.55228 13 9 13H8C7.44772 13 7 12.5523 7 12Z" fill="white"/>
<path d="M8 15C7.44772 15 7 15.4477 7 16C7 16.5523 7.44772 17 8 17H9C9.55228 17 10 16.5523 10 16C10 15.4477 9.55228 15 9 15H8Z" fill="white"/>
<path fill-rule="evenodd" clip-rule="evenodd" d="M4 6C4 4.34315 5.34315 3 7 3H17C18.6569 3 20 4.34315 20 6V18C20 19.6569 18.6569 21 17 21H7C5.34315 21 4 19.6569 4 18V6ZM7 5C6.44772 5 6 5.44772 6 6V18C6 18.5523 6.44772 19 7 19H17C17.5523 19 18 18.5523 18 18V6C18 5.44772 17.5523 5 17 5H7Z" fill="white"/>
</svg>
