<svg width="28" height="28" viewBox="0 0 28 28" fill="none" xmlns="http://www.w3.org/2000/svg">
<g clip-path="url(#clip0_105_3574)">
<path d="M0 5.25C0 4.32174 0.368749 3.4315 1.02513 2.77513C1.6815 2.11875 2.57174 1.75 3.5 1.75H27.125C27.3571 1.75 27.5796 1.84219 27.7437 2.00628C27.9078 2.17038 28 2.39294 28 2.625C28 2.85706 27.9078 3.07962 27.7437 3.24372C27.5796 3.40781 27.3571 3.5 27.125 3.5H26.25V7C26.7141 7 27.1592 7.18437 27.4874 7.51256C27.8156 7.84075 28 8.28587 28 8.75V23.625C28 24.3212 27.7234 24.9889 27.2312 25.4812C26.7389 25.9734 26.0712 26.25 25.375 26.25H4.375C3.21468 26.25 2.10188 25.7891 1.28141 24.9686C0.460936 24.1481 0 23.0353 0 21.875L0 5.25ZM1.75 8.281V21.875C1.75 22.5712 2.02656 23.2389 2.51884 23.7312C3.01113 24.2234 3.67881 24.5 4.375 24.5H25.375C25.6071 24.5 25.8296 24.4078 25.9937 24.2437C26.1578 24.0796 26.25 23.8571 26.25 23.625V8.75H3.5C2.8855 8.7508 2.28174 8.58899 1.75 8.281ZM1.75 5.25C1.75 5.71413 1.93437 6.15925 2.26256 6.48744C2.59075 6.81563 3.03587 7 3.5 7H24.5V3.5H3.5C3.03587 3.5 2.59075 3.68437 2.26256 4.01256C1.93437 4.34075 1.75 4.78587 1.75 5.25Z" fill="white"/>
</g>
<defs>
<clipPath id="clip0_105_3574">
<rect width="28" height="28" fill="white"/>
</clipPath>
</defs>
</svg>
