<svg width="177" height="50" viewBox="0 0 177 50" fill="none" xmlns="http://www.w3.org/2000/svg">
<rect width="177" height="50" fill="white"/>
<path d="M18.24 29.76H12V37H2.4V7H17.52C24.4 7 27.84 10.6933 27.84 18.08C27.84 19.7067 27.68 21.2267 27.36 22.64C27.04 24.0533 26.4933 25.2933 25.72 26.36C24.9733 27.4 23.9867 28.2267 22.76 28.84C21.56 29.4533 20.0533 29.76 18.24 29.76ZM14.2 14.68H12V22.08H14.2C15.3733 22.08 16.2133 21.96 16.72 21.72C17.2533 21.48 17.52 20.92 17.52 20.04V16.68C17.52 15.8267 17.2533 15.28 16.72 15.04C16.2133 14.8 15.3733 14.68 14.2 14.68ZM40.0803 28.84V30.52C40.5603 30.5733 41.0403 30.6133 41.5203 30.64C42.0003 30.6667 42.4803 30.68 42.9603 30.68C45.947 30.68 48.9603 30.2 52.0003 29.24L53.1203 36.28C49.5203 37.24 45.9736 37.72 42.4803 37.72C38.0003 37.72 34.7603 36.68 32.7603 34.6C30.7603 32.4933 29.7603 29.2933 29.7603 25C29.7603 20.7067 30.7603 17.52 32.7603 15.44C34.787 13.3333 38.027 12.28 42.4803 12.28C44.7203 12.28 46.587 12.4267 48.0803 12.72C49.5736 12.9867 50.7736 13.4533 51.6803 14.12C52.6136 14.76 53.267 15.64 53.6403 16.76C54.0403 17.8533 54.2403 19.24 54.2403 20.92C54.2403 22.3067 54.0003 23.5067 53.5203 24.52C53.067 25.5067 52.2936 26.32 51.2003 26.96C50.107 27.6 48.6536 28.08 46.8403 28.4C45.027 28.6933 42.7736 28.84 40.0803 28.84ZM40.0803 21.32V23.28H42.0403C43.2136 23.28 44.0536 23.16 44.5603 22.92C45.0936 22.68 45.3603 22.12 45.3603 21.24V19.28H43.4003C42.227 19.28 41.3736 19.4 40.8403 19.64C40.3336 19.88 40.0803 20.44 40.0803 21.32ZM57.8297 13H62.6297L65.0297 15.4C67.9897 13.32 71.1897 12.28 74.6297 12.28C76.8964 12.28 78.6564 12.7733 79.9097 13.76C81.1897 14.72 81.8297 16.0667 81.8297 17.8V37H72.2297V20.2H70.7497C69.6564 20.2 68.8297 20.32 68.2697 20.56C67.7097 20.7733 67.4297 21.2667 67.4297 22.04V37H57.8297V13ZM107.456 25C107.456 20.7067 108.456 17.52 110.456 15.44C112.456 13.3333 115.696 12.28 120.176 12.28C124.656 12.28 127.896 13.3333 129.896 15.44C131.896 17.52 132.896 20.7067 132.896 25C132.896 29.2933 131.896 32.4933 129.896 34.6C127.896 36.68 124.656 37.72 120.176 37.72C115.802 37.72 112.589 36.6933 110.536 34.64C108.482 32.5867 107.456 29.3733 107.456 25ZM117.776 21.32V30.72H119.256C120.429 30.72 121.269 30.6 121.776 30.36C122.309 30.12 122.576 29.56 122.576 28.68V19.28H121.096C119.922 19.28 119.069 19.4 118.536 19.64C118.029 19.88 117.776 20.44 117.776 21.32ZM150.176 37V20.2H149.496C149.069 20.2 148.656 20.2133 148.256 20.24C147.883 20.2667 147.549 20.36 147.256 20.52C146.963 20.6533 146.736 20.8667 146.576 21.16C146.416 21.4533 146.336 21.8667 146.336 22.4V37H136.736V13H141.536L143.696 15.2C145.643 13.2533 148.203 12.28 151.376 12.28C154.523 12.28 156.816 12.9333 158.256 14.24C160.256 12.9333 162.523 12.28 165.056 12.28C167.643 12.28 169.643 12.7733 171.056 13.76C172.496 14.72 173.216 16.0667 173.216 17.8V37H163.616V20.2H162.936C162.563 20.2 162.189 20.2133 161.816 20.24C161.443 20.2667 161.109 20.3467 160.816 20.48C160.549 20.5867 160.309 20.7733 160.096 21.04C159.909 21.3067 159.803 21.6667 159.776 22.12V37H150.176Z" fill="#03435F"/>
<path d="M103.984 29.8L104.584 36.72C102.931 37.3867 100.784 37.72 98.1444 37.72C93.6644 37.72 90.4244 36.68 88.4244 34.6C86.4244 32.4933 85.4244 29.2933 85.4244 25C85.4244 20.7067 86.4244 17.52 88.4244 15.44C90.4244 13.3333 93.6644 12.28 98.1444 12.28C100.998 12.28 103.144 12.6133 104.584 13.28L103.424 19.8C102.571 19.64 101.811 19.52 101.144 19.44C100.478 19.3333 99.891 19.28 99.3844 19.28C96.9577 19.28 95.7444 20.1333 95.7444 21.84V30.44C96.1977 30.52 96.7177 30.5867 97.3044 30.64C97.9177 30.6933 98.5977 30.72 99.3444 30.72C100.838 30.72 102.384 30.4133 103.984 29.8Z" fill="#ED342B"/>
</svg>
