<?xml version="1.0" standalone="no"?>
<!DOCTYPE svg PUBLIC "-//W3C//DTD SVG 20010904//EN"
 "http://www.w3.org/TR/2001/REC-SVG-20010904/DTD/svg10.dtd">
<svg version="1.0" xmlns="http://www.w3.org/2000/svg"
 width="565.000000pt" height="565.000000pt" viewBox="0 0 565.000000 565.000000"
 preserveAspectRatio="xMidYMid meet">
<metadata>
Created by potrace 1.14, written by Peter Selinger 2001-2017
</metadata>
<g transform="translate(0.000000,565.000000) scale(0.100000,-0.100000)"
fill="#000000" stroke="none">
<path d="M879 5100 c-6 -29 -2 -4673 4 -4677 7 -4 1220 -7 1452 -4 l41 1 -1
561 c0 366 3 563 10 565 6 2 278 5 605 7 327 2 614 7 638 11 175 26 368 90
496 164 426 246 653 667 713 1325 10 102 10 586 0 647 -4 25 -9 68 -12 95 -3
28 -8 57 -10 65 -3 8 -7 33 -11 55 -33 213 -144 482 -268 649 -86 117 -232
254 -321 302 -40 21 -70 39 -75 44 -9 10 -145 69 -205 90 -122 42 -296 79
-455 96 -74 8 -2599 12 -2601 4z m2016 -1236 c33 -4 62 -9 65 -9 3 -1 32 -5
65 -10 33 -4 70 -11 82 -16 14 -5 23 -4 26 4 6 19 65 -53 85 -103 15 -40 17
-86 17 -400 0 -317 -2 -361 -18 -407 -18 -51 -20 -52 -80 -72 -171 -56 -241
-66 -442 -65 -161 1 -247 7 -284 19 -15 4 -16 45 -15 447 0 435 1 444 22 488
12 25 39 57 60 72 37 26 118 54 177 61 46 5 173 0 240 -9z"/>
</g>
</svg>
